<svg width="94" height="97" viewBox="0 0 94 97" fill="none" xmlns="http://www.w3.org/2000/svg">
<rect opacity="0.07" width="94" height="94" rx="26" fill="#782CE4"/>
<g filter="url(#filter0_d)">
<rect x="15.2881" y="15.2881" width="63.4238" height="63.4238" rx="17.756" fill="white"/>
</g>
<path d="M60.9118 33.0867C62.7389 34.9138 64.1883 37.0829 65.1771 39.4702C66.1659 41.8574 66.6748 44.416 66.6748 47C66.6748 49.5839 66.1659 52.1425 65.1771 54.5297C64.1883 56.917 62.7389 59.0861 60.9118 60.9132C59.0847 62.7403 56.9156 64.1897 54.5283 65.1785C52.1411 66.1673 49.5825 66.6763 46.9986 66.6763C44.4146 66.6763 41.856 66.1673 39.4688 65.1785C37.0815 64.1897 34.9124 62.7403 33.0853 60.9132C31.2582 59.0861 29.8089 56.917 28.82 54.5298C27.8312 52.1425 27.3223 49.5839 27.3223 47C27.3223 44.416 27.8312 41.8574 28.82 39.4702C29.8089 37.0829 31.2582 34.9138 33.0853 33.0867C34.9124 31.2596 37.0815 29.8103 39.4688 28.8214C41.856 27.8326 44.4146 27.3237 46.9986 27.3237C49.5825 27.3237 52.1411 27.8326 54.5283 28.8214C56.9156 29.8103 59.0847 31.2596 60.9118 33.0867L60.9118 33.0867Z" stroke="#F0F1F5" stroke-width="8.878" stroke-linecap="round"/>
<g filter="url(#filter1_d)">
<path d="M50.7925 66.307C48.2571 66.8052 45.6483 66.7992 43.1152 66.2892C40.5821 65.7793 38.1743 64.7754 36.0291 63.3348C33.884 61.8943 32.0436 60.0454 30.6131 57.8936C29.1825 55.7418 28.1897 53.3294 27.6915 50.7939C27.1933 48.2585 27.1993 45.6497 27.7093 43.1166C28.2192 40.5835 29.2231 38.1757 30.6637 36.0306C32.1042 33.8854 33.9531 32.045 36.1049 30.6145C38.2567 29.1839 40.6692 28.1911 43.2046 27.6929C45.74 27.1947 48.3488 27.2007 50.8819 27.7107C53.415 28.2206 55.8228 29.2246 57.968 30.6651C60.1131 32.1056 61.9535 33.9545 63.3841 36.1063C64.8146 38.2581 65.8074 40.6706 66.3056 43.206C66.8038 45.7414 66.7978 48.3502 66.2878 50.8833C65.7779 53.4164 64.774 55.8242 63.3334 57.9694C61.8929 60.1145 60.044 61.9549 57.8922 63.3855C55.7404 64.816 53.328 65.8088 50.7925 66.307L50.7925 66.307Z" stroke="#782CE4" stroke-width="8.878" stroke-linecap="round"/>
</g>
<defs>
<filter id="filter0_d" x="1.77044" y="5.63262" width="90.4591" height="90.4591" filterUnits="userSpaceOnUse" color-interpolation-filters="sRGB">
<feFlood flood-opacity="0" result="BackgroundImageFix"/>
<feColorMatrix in="SourceAlpha" type="matrix" values="0 0 0 0 0 0 0 0 0 0 0 0 0 0 0 0 0 0 127 0"/>
<feOffset dy="3.86219"/>
<feGaussianBlur stdDeviation="6.75882"/>
<feColorMatrix type="matrix" values="0 0 0 0 0.015 0 0 0 0 0.02475 0 0 0 0 0.1125 0 0 0 0.16 0"/>
<feBlend mode="normal" in2="BackgroundImageFix" result="effect1_dropShadow"/>
<feBlend mode="normal" in="SourceGraphic" in2="effect1_dropShadow" result="shape"/>
</filter>
<filter id="filter1_d" x="18.4438" y="22.8846" width="57.1086" height="57.1086" filterUnits="userSpaceOnUse" color-interpolation-filters="sRGB">
<feFlood flood-opacity="0" result="BackgroundImageFix"/>
<feColorMatrix in="SourceAlpha" type="matrix" values="0 0 0 0 0 0 0 0 0 0 0 0 0 0 0 0 0 0 127 0"/>
<feOffset dy="4.439"/>
<feGaussianBlur stdDeviation="2.2195"/>
<feColorMatrix type="matrix" values="0 0 0 0 0.470588 0 0 0 0 0.172549 0 0 0 0 0.894118 0 0 0 0.26 0"/>
<feBlend mode="normal" in2="BackgroundImageFix" result="effect1_dropShadow"/>
<feBlend mode="normal" in="SourceGraphic" in2="effect1_dropShadow" result="shape"/>
</filter>
</defs>
</svg>
