<svg width="94" height="97" viewBox="0 0 94 97" fill="none" xmlns="http://www.w3.org/2000/svg">
<rect opacity="0.08" width="94" height="94" rx="26" fill="#1B76FF"/>
<g filter="url(#filter0_d)">
<rect x="15.2881" y="15.2881" width="63.4238" height="63.4238" rx="17.756" fill="white"/>
</g>
<path d="M60.9118 33.0868C62.7389 34.9139 64.1883 37.083 65.1771 39.4702C66.1659 41.8575 66.6748 44.4161 66.6748 47C66.6748 49.5839 66.1659 52.1426 65.1771 54.5298C64.1883 56.917 62.7389 59.0861 60.9118 60.9133C59.0847 62.7404 56.9156 64.1897 54.5283 65.1785C52.1411 66.1674 49.5825 66.6763 46.9986 66.6763C44.4146 66.6763 41.856 66.1674 39.4688 65.1785C37.0815 64.1897 34.9124 62.7404 33.0853 60.9133C31.2582 59.0861 29.8089 56.917 28.82 54.5298C27.8312 52.1426 27.3223 49.5839 27.3223 47C27.3223 44.4161 27.8312 41.8575 28.82 39.4702C29.8089 37.083 31.2582 34.9139 33.0853 33.0868C34.9124 31.2597 37.0815 29.8103 39.4688 28.8215C41.856 27.8327 44.4146 27.3237 46.9986 27.3237C49.5825 27.3237 52.1411 27.8327 54.5283 28.8215C56.9156 29.8103 59.0847 31.2597 60.9118 33.0868L60.9118 33.0868Z" stroke="#F0F1F5" stroke-width="8.878" stroke-linecap="round"/>
<g filter="url(#filter1_d)">
<path d="M46.9986 66.6763C44.4146 66.6763 41.856 66.1674 39.4688 65.1785C37.0815 64.1897 34.9124 62.7404 33.0853 60.9133C31.2582 59.0861 29.8089 56.917 28.82 54.5298C27.8312 52.1426 27.3223 49.5839 27.3223 47" stroke="#1B76FF" stroke-width="8.878" stroke-linecap="round"/>
</g>
<defs>
<filter id="filter0_d" x="1.77044" y="5.63262" width="90.4591" height="90.4591" filterUnits="userSpaceOnUse" color-interpolation-filters="sRGB">
<feFlood flood-opacity="0" result="BackgroundImageFix"/>
<feColorMatrix in="SourceAlpha" type="matrix" values="0 0 0 0 0 0 0 0 0 0 0 0 0 0 0 0 0 0 127 0"/>
<feOffset dy="3.86219"/>
<feGaussianBlur stdDeviation="6.75882"/>
<feColorMatrix type="matrix" values="0 0 0 0 0.104167 0 0 0 0 0.4625 0 0 0 0 1 0 0 0 0.15 0"/>
<feBlend mode="normal" in2="BackgroundImageFix" result="effect1_dropShadow"/>
<feBlend mode="normal" in="SourceGraphic" in2="effect1_dropShadow" result="shape"/>
</filter>
<filter id="filter1_d" x="18.4438" y="42.561" width="37.4323" height="37.4323" filterUnits="userSpaceOnUse" color-interpolation-filters="sRGB">
<feFlood flood-opacity="0" result="BackgroundImageFix"/>
<feColorMatrix in="SourceAlpha" type="matrix" values="0 0 0 0 0 0 0 0 0 0 0 0 0 0 0 0 0 0 127 0"/>
<feOffset dy="4.439"/>
<feGaussianBlur stdDeviation="2.2195"/>
<feColorMatrix type="matrix" values="0 0 0 0 0.104167 0 0 0 0 0.4625 0 0 0 0 1 0 0 0 0.15 0"/>
<feBlend mode="normal" in2="BackgroundImageFix" result="effect1_dropShadow"/>
<feBlend mode="normal" in="SourceGraphic" in2="effect1_dropShadow" result="shape"/>
</filter>
</defs>
</svg>
