<svg id="Layer_1" data-name="Layer 1" xmlns="http://www.w3.org/2000/svg" viewBox="0 0 157.17 23.98"><defs><style>.cls-1{fill:#fff;}</style></defs><title>logo-text</title><path class="cls-1" d="M20.61,25.28l-2.87,1.44a4.37,4.37,0,0,0-1.56-1.57,4.39,4.39,0,0,0-2-.39,4,4,0,0,0-2.47.78,2.12,2.12,0,0,0-.92,1.83c0,1,.79,1.82,2.48,2.47l2.35.79a11.49,11.49,0,0,1,4.17,2.47,5.05,5.05,0,0,1,1.3,3.65A5.67,5.67,0,0,1,19,41.44a7.58,7.58,0,0,1-5.34,1.83A7.72,7.72,0,0,1,8.75,41.7a7.44,7.44,0,0,1-2.48-4.43l3.52-.65a4.6,4.6,0,0,0,.78,2.48,3.87,3.87,0,0,0,3.13,1.3,3.64,3.64,0,0,0,2.74-1,3.08,3.08,0,0,0,1-2.48,2.53,2.53,0,0,0-.13-1,2,2,0,0,0-.65-.91,7.21,7.21,0,0,0-1-.78,4.3,4.3,0,0,0-1.57-.66l-2.21-.78c-3.13-1.17-4.83-3-4.83-5.21a4.82,4.82,0,0,1,2-3.91A7.77,7.77,0,0,1,14,22,6.49,6.49,0,0,1,20.61,25.28Z" transform="translate(-6.27 -20.59)"/><path class="cls-1" d="M29,22.29V43H25.43V22.29Z" transform="translate(-6.27 -20.59)"/><path class="cls-1" d="M35.73,22.29l6.38,14.33,6.52-14.33h3.78L42,44.57,31.82,22.29Z" transform="translate(-6.27 -20.59)"/><path class="cls-1" d="M64.14,42.88l5-22.29,8,16,8.21-16,4.43,22.29H86L83.82,30.37,76.91,43.79,70.26,30.37,67.79,42.88Z" transform="translate(-6.27 -20.59)"/><path class="cls-1" d="M107.41,25.15H98v5h9V33H98v7h9.39v3H94.63V22.29h12.78Z" transform="translate(-6.27 -20.59)"/><path class="cls-1" d="M112,42.88V22.29h4.82a21.28,21.28,0,0,1,5.6.65A9.46,9.46,0,0,1,126.3,25,9.69,9.69,0,0,1,130,32.71a9.43,9.43,0,0,1-3.78,7.69,11.42,11.42,0,0,1-3.91,2.09,20.34,20.34,0,0,1-5.47.52L112,42.88ZM115.49,40h1.56a16.5,16.5,0,0,0,3.91-.39,8.59,8.59,0,0,0,2.87-1.43,7.06,7.06,0,0,0,0-10.95c-1.57-1.31-3.78-1.83-6.78-1.83h-1.56Z" transform="translate(-6.27 -20.59)"/><path class="cls-1" d="M137.9,22.29V43h-3.52V22.29Z" transform="translate(-6.27 -20.59)"/><path class="cls-1" d="M157.19,37.93h-9.9L144.68,43H140.9l11.47-22,11.08,22h-3.78Zm-1.43-3-3.39-7-3.65,7Z" transform="translate(-6.27 -20.59)"/></svg>